<svg data-v-423bf9ae="" xmlns="http://www.w3.org/2000/svg" viewBox="0 0 79.94520074538134 60" class="font"><!----><!----><!----><g data-v-423bf9ae="" id="f8dfcb99-8bd7-4d7b-9f8a-9a2e0b474c3e" fill="white" transform="matrix(5.4794516730146245,0,0,5.4794516730146245,-3.452055036555784,-19.56164186845077)"><path d="M0.63 14.35L4.26 14.35L4.26 13.68L2.93 13.68L2.93 7.85L4.54 7.85L4.54 7.13L2.93 7.13L2.93 5.73C2.93 4.73 3.36 4.13 4.14 4.13C4.34 4.13 4.52 4.14 4.65 4.19L4.65 4.21C4.40 4.31 4.26 4.54 4.26 4.87C4.26 5.25 4.55 5.57 4.98 5.57C5.43 5.57 5.75 5.24 5.75 4.75C5.75 3.98 5.10 3.57 4.03 3.57C2.66 3.57 1.68 4.52 1.68 5.89L1.68 7.13L0.63 7.13L0.63 7.85L1.68 7.85L1.68 13.68L0.63 13.68ZM6.89 14.52C7.46 14.52 7.81 14.11 7.81 13.62L7.81 13.54C7.81 13.05 7.46 12.64 6.89 12.64C6.31 12.64 5.96 13.05 5.96 13.54L5.96 13.62C5.96 14.11 6.31 14.52 6.89 14.52ZM12.38 14.52C13.94 14.52 14.85 13.59 15.22 12.60L14.73 12.29C14.34 13.05 13.73 13.57 12.57 13.57C11.23 13.57 10.39 12.57 10.39 11.07L10.39 10.01C10.39 8.67 11.33 7.64 12.63 7.64C13.23 7.64 13.61 7.74 13.83 7.87L13.83 7.91C13.44 8.08 13.20 8.40 13.20 8.82C13.20 9.31 13.51 9.73 14.11 9.73C14.69 9.73 15.05 9.34 15.05 8.72C15.05 7.70 14.06 6.96 12.49 6.96C10.43 6.96 9.00 8.44 9.00 10.74C9.00 12.99 10.23 14.52 12.38 14.52Z"></path></g><!----><!----></svg>